<svg xmlns="http://www.w3.org/2000/svg" xmlns:xlink="http://www.w3.org/1999/xlink" width="500" zoomAndPan="magnify" viewBox="0 0 375 374.999991" height="500" preserveAspectRatio="xMidYMid meet" version="1.0"><defs><clipPath id="ab71f0b20f"><path d="M 96 132 L 359.167969 132 L 359.167969 242 L 96 242 Z M 96 132 " clip-rule="nonzero"/></clipPath><clipPath id="04472983fa"><path d="M 15.667969 102.800781 L 166.808594 102.800781 L 166.808594 271.992188 L 15.667969 271.992188 Z M 15.667969 102.800781 " clip-rule="nonzero"/></clipPath><clipPath id="0a1834b043"><path d="M 19 102.65625 L 167 102.65625 L 167 195 L 19 195 Z M 19 102.65625 " clip-rule="nonzero"/></clipPath><clipPath id="769088e8b5"><path d="M 90 271.402344 L 92 271.402344 L 92 271.992188 L 90 271.992188 Z M 90 271.402344 " clip-rule="nonzero"/></clipPath><clipPath id="ad1245be5e"><path d="M 15.667969 144 L 132.457031 144 L 132.457031 271.992188 L 15.667969 271.992188 Z M 15.667969 144 " clip-rule="nonzero"/></clipPath><clipPath id="1502e1e2d8"><path d="M 37 102.65625 L 91 102.65625 L 91 133 L 37 133 Z M 37 102.65625 " clip-rule="nonzero"/></clipPath><clipPath id="17bdf54419"><path d="M 26 102.65625 L 167 102.65625 L 167 226 L 26 226 Z M 26 102.65625 " clip-rule="nonzero"/></clipPath></defs><g clip-path="url(#ab71f0b20f)"><path fill="#83c927" d="M 358.226562 241.988281 L 97.105469 241.988281 C 96.585938 241.988281 96.164062 241.570312 96.164062 241.050781 L 96.164062 133.742188 C 96.164062 133.222656 96.585938 132.800781 97.105469 132.800781 L 358.226562 132.800781 C 358.746094 132.800781 359.167969 133.222656 359.167969 133.742188 L 359.167969 241.050781 C 359.167969 241.570312 358.746094 241.988281 358.226562 241.988281 " fill-opacity="1" fill-rule="nonzero"/></g><path fill="#f5fad8" d="M 355.820312 238.851562 L 99.511719 238.851562 C 99.011719 238.851562 98.609375 238.445312 98.609375 237.949219 L 98.609375 136.84375 C 98.609375 136.34375 99.011719 135.941406 99.511719 135.941406 L 355.820312 135.941406 C 356.320312 135.941406 356.726562 136.34375 356.726562 136.84375 L 356.726562 237.949219 C 356.726562 238.445312 356.320312 238.851562 355.820312 238.851562 " fill-opacity="1" fill-rule="nonzero"/><path fill="#83c927" d="M 347.902344 233.617188 L 104.371094 233.617188 C 103.910156 233.617188 103.535156 233.242188 103.535156 232.785156 L 103.535156 142.011719 C 103.535156 141.546875 103.910156 141.175781 104.371094 141.175781 L 347.902344 141.175781 C 348.363281 141.175781 348.738281 141.546875 348.738281 142.011719 L 348.738281 232.785156 C 348.738281 233.242188 348.363281 233.617188 347.902344 233.617188 " fill-opacity="1" fill-rule="nonzero"/><path fill="#6bb42f" d="M 136.703125 241.988281 L 129.109375 241.988281 C 129.921875 240.960938 130.734375 239.914062 131.542969 238.851562 L 139.140625 238.851562 C 138.328125 239.914062 137.515625 240.960938 136.703125 241.988281 M 159.867188 135.941406 L 152.257812 135.941406 C 149.929688 134.554688 147.304688 133.496094 144.382812 132.820312 C 144.359375 132.8125 144.339844 132.808594 144.316406 132.800781 L 151.929688 132.800781 L 151.992188 132.820312 C 154.910156 133.496094 157.535156 134.554688 159.867188 135.941406 " fill-opacity="1" fill-rule="nonzero"/><path fill="#bee6a6" d="M 139.140625 238.851562 L 131.542969 238.851562 C 132.84375 237.148438 134.140625 235.398438 135.425781 233.617188 L 143.019531 233.617188 C 141.738281 235.402344 140.441406 237.148438 139.140625 238.851562 M 166.109375 141.175781 L 158.503906 141.175781 C 156.730469 139.125 154.648438 137.363281 152.257812 135.941406 L 159.867188 135.941406 C 162.253906 137.363281 164.332031 139.125 166.109375 141.175781 " fill-opacity="1" fill-rule="nonzero"/><path fill="#6bb42f" d="M 143.019531 233.617188 L 135.425781 233.617188 C 144.496094 221.035156 153.136719 206.640625 159.945312 192.464844 C 168.824219 173.484375 168.550781 152.777344 158.503906 141.175781 L 166.109375 141.175781 C 176.15625 152.777344 176.433594 173.484375 167.550781 192.464844 C 160.738281 206.644531 152.097656 221.039062 143.019531 233.617188 " fill-opacity="1" fill-rule="nonzero"/><g clip-path="url(#04472983fa)"><path fill="#83c927" d="M 144.382812 132.820312 C 121.523438 127.519531 128.332031 102.800781 91.332031 102.800781 L 90.671875 102.800781 C 53.675781 102.800781 60.484375 127.519531 37.621094 132.820312 C 14.757812 138.117188 10.078125 166.863281 22.058594 192.464844 C 40.761719 231.378906 73.222656 271.992188 90.671875 271.992188 C 90.785156 271.992188 91.21875 271.992188 91.332031 271.992188 C 108.78125 271.992188 141.246094 231.378906 159.945312 192.464844 C 171.925781 166.863281 167.25 138.117188 144.382812 132.820312 " fill-opacity="1" fill-rule="nonzero"/></g><g clip-path="url(#0a1834b043)"><path fill="#95d333" d="M 159.035156 194.339844 C 159.039062 194.335938 159.039062 194.332031 159.042969 194.328125 C 159.039062 194.332031 159.039062 194.335938 159.035156 194.339844 M 159.066406 194.277344 C 159.070312 194.269531 159.074219 194.261719 159.078125 194.25 C 159.074219 194.261719 159.070312 194.269531 159.066406 194.277344 M 159.09375 194.226562 C 159.097656 194.210938 159.109375 194.191406 159.113281 194.175781 C 159.109375 194.195312 159.097656 194.207031 159.09375 194.226562 M 159.121094 194.164062 C 159.398438 193.597656 159.675781 193.03125 159.945312 192.464844 C 159.675781 193.03125 159.398438 193.597656 159.121094 194.164062 M 166.339844 165.273438 C 166.335938 149.449219 159.152344 136.242188 144.382812 132.820312 C 121.523438 127.519531 128.332031 102.800781 91.332031 102.800781 L 90.671875 102.800781 L 91.332031 102.800781 C 128.332031 102.800781 121.523438 127.519531 144.382812 132.820312 C 159.152344 136.242188 166.335938 149.449219 166.339844 165.273438 M 19.441406 147.382812 C 22.914062 140.277344 28.785156 135.007812 37.15625 132.929688 C 32.988281 133.96875 29.445312 135.804688 26.503906 138.253906 C 28.070312 138.597656 29.617188 138.964844 31.140625 139.347656 C 27.628906 140.539062 24.625 142.339844 22.09375 144.621094 C 22.46875 143.511719 22.894531 142.441406 23.371094 141.398438 C 21.871094 143.164062 20.59375 145.132812 19.535156 147.269531 C 19.503906 147.308594 19.476562 147.34375 19.441406 147.382812 M 37.164062 132.925781 C 37.175781 132.925781 37.183594 132.925781 37.195312 132.921875 C 37.183594 132.925781 37.171875 132.925781 37.164062 132.925781 M 37.214844 132.914062 C 37.21875 132.914062 37.226562 132.910156 37.226562 132.910156 C 37.226562 132.910156 37.21875 132.914062 37.214844 132.914062 " fill-opacity="1" fill-rule="nonzero"/></g><g clip-path="url(#769088e8b5)"><path fill="#d6e4bc" d="M 91.332031 271.992188 C 91.21875 271.992188 90.785156 271.992188 90.671875 271.992188 C 90.53125 271.992188 90.382812 271.988281 90.234375 271.980469 C 90.382812 271.988281 90.53125 271.992188 90.671875 271.992188 C 90.785156 271.992188 91.21875 271.992188 91.332031 271.992188 C 91.339844 271.992188 91.347656 271.992188 91.351562 271.992188 C 91.347656 271.992188 91.339844 271.992188 91.332031 271.992188 M 91.363281 271.992188 C 91.367188 271.992188 91.375 271.992188 91.378906 271.992188 C 91.375 271.992188 91.367188 271.992188 91.363281 271.992188 M 91.386719 271.992188 C 91.390625 271.992188 91.398438 271.992188 91.402344 271.992188 C 91.398438 271.992188 91.390625 271.992188 91.386719 271.992188 M 91.410156 271.992188 C 91.417969 271.992188 91.425781 271.992188 91.433594 271.992188 C 91.425781 271.992188 91.417969 271.992188 91.410156 271.992188 M 91.4375 271.992188 C 91.441406 271.992188 91.453125 271.992188 91.457031 271.992188 C 91.453125 271.992188 91.441406 271.992188 91.4375 271.992188 M 91.464844 271.992188 C 91.46875 271.992188 91.476562 271.992188 91.480469 271.992188 C 91.476562 271.992188 91.46875 271.992188 91.464844 271.992188 M 91.492188 271.992188 C 91.492188 271.992188 91.5 271.992188 91.503906 271.992188 C 91.5 271.992188 91.492188 271.992188 91.492188 271.992188 M 91.515625 271.992188 C 91.519531 271.992188 91.527344 271.992188 91.535156 271.988281 C 91.527344 271.992188 91.519531 271.992188 91.515625 271.992188 M 91.542969 271.988281 C 91.546875 271.988281 91.554688 271.988281 91.558594 271.988281 C 91.554688 271.988281 91.546875 271.988281 91.542969 271.988281 M 91.566406 271.988281 C 91.574219 271.988281 91.578125 271.988281 91.582031 271.988281 C 91.578125 271.988281 91.574219 271.988281 91.566406 271.988281 M 91.59375 271.988281 C 91.597656 271.988281 91.601562 271.988281 91.605469 271.988281 C 91.601562 271.988281 91.597656 271.988281 91.59375 271.988281 M 91.617188 271.988281 C 91.625 271.988281 91.628906 271.988281 91.640625 271.988281 C 91.628906 271.988281 91.625 271.988281 91.617188 271.988281 M 91.644531 271.988281 C 91.652344 271.988281 91.65625 271.988281 91.660156 271.988281 C 91.65625 271.988281 91.652344 271.988281 91.644531 271.988281 M 91.671875 271.984375 C 91.675781 271.984375 91.679688 271.984375 91.683594 271.984375 C 91.679688 271.984375 91.675781 271.984375 91.671875 271.984375 M 91.695312 271.984375 C 91.703125 271.984375 91.703125 271.984375 91.707031 271.984375 C 91.707031 271.984375 91.699219 271.984375 91.695312 271.984375 M 91.71875 271.984375 C 91.726562 271.984375 91.734375 271.984375 91.742188 271.984375 C 91.734375 271.984375 91.726562 271.984375 91.71875 271.984375 M 91.753906 271.984375 C 91.757812 271.980469 91.757812 271.980469 91.765625 271.980469 C 91.761719 271.980469 91.757812 271.984375 91.753906 271.984375 M 91.777344 271.980469 C 91.78125 271.980469 91.78125 271.980469 91.789062 271.980469 C 91.785156 271.980469 91.78125 271.980469 91.777344 271.980469 M 91.800781 271.980469 C 91.804688 271.980469 91.804688 271.980469 91.8125 271.980469 C 91.804688 271.980469 91.804688 271.980469 91.800781 271.980469 M 91.859375 271.980469 C 91.859375 271.980469 91.867188 271.980469 91.867188 271.980469 C 91.863281 271.980469 91.863281 271.980469 91.859375 271.980469 M 91.882812 271.980469 C 91.882812 271.980469 91.886719 271.980469 91.890625 271.980469 C 91.886719 271.980469 91.882812 271.980469 91.882812 271.980469 M 91.90625 271.976562 C 91.90625 271.976562 91.90625 271.976562 91.910156 271.976562 C 91.90625 271.976562 91.90625 271.976562 91.90625 271.976562 M 91.964844 271.972656 C 91.96875 271.972656 91.96875 271.972656 91.96875 271.972656 C 91.96875 271.972656 91.96875 271.972656 91.964844 271.972656 M 91.984375 271.972656 C 91.988281 271.972656 91.992188 271.972656 91.992188 271.972656 C 91.992188 271.972656 91.988281 271.972656 91.984375 271.972656 " fill-opacity="1" fill-rule="nonzero"/></g><g clip-path="url(#ad1245be5e)"><path fill="#7aba2a" d="M 91.332031 271.992188 C 91.21875 271.992188 90.785156 271.992188 90.671875 271.992188 C 90.53125 271.992188 90.382812 271.988281 90.234375 271.980469 C 72.683594 271.316406 40.605469 231.054688 22.058594 192.464844 C 14.566406 176.453125 13.617188 159.230469 19.535156 147.269531 C 20.328125 146.328125 21.175781 145.445312 22.09375 144.621094 C 18.140625 156.242188 19.613281 171.472656 26.292969 185.75 C 44.996094 224.664062 77.457031 265.277344 94.90625 265.277344 C 95.019531 265.277344 95.449219 265.277344 95.5625 265.277344 C 101.972656 265.277344 110.414062 259.792969 119.445312 250.929688 C 119.460938 251.714844 119.460938 252.492188 119.460938 253.265625 C 123.730469 248.6875 128.078125 243.445312 132.363281 237.761719 C 117.773438 257.128906 102.476562 271.292969 92.09375 271.964844 C 92.085938 271.964844 92.082031 271.964844 92.070312 271.964844 C 92.046875 271.96875 92.019531 271.96875 91.992188 271.972656 C 91.992188 271.972656 91.988281 271.972656 91.984375 271.972656 C 91.980469 271.972656 91.976562 271.972656 91.96875 271.972656 C 91.96875 271.972656 91.96875 271.972656 91.964844 271.972656 C 91.945312 271.976562 91.929688 271.976562 91.910156 271.976562 C 91.90625 271.976562 91.90625 271.976562 91.90625 271.976562 C 91.898438 271.976562 91.894531 271.980469 91.890625 271.980469 C 91.886719 271.980469 91.882812 271.980469 91.882812 271.980469 C 91.878906 271.980469 91.871094 271.980469 91.867188 271.980469 C 91.867188 271.980469 91.859375 271.980469 91.859375 271.980469 C 91.847656 271.980469 91.835938 271.980469 91.824219 271.980469 C 91.820312 271.980469 91.816406 271.980469 91.8125 271.980469 C 91.804688 271.980469 91.804688 271.980469 91.800781 271.980469 C 91.792969 271.980469 91.792969 271.980469 91.789062 271.980469 C 91.78125 271.980469 91.78125 271.980469 91.777344 271.980469 C 91.773438 271.980469 91.769531 271.980469 91.765625 271.980469 C 91.757812 271.980469 91.757812 271.980469 91.753906 271.984375 C 91.746094 271.984375 91.742188 271.984375 91.742188 271.984375 C 91.734375 271.984375 91.726562 271.984375 91.71875 271.984375 C 91.71875 271.984375 91.710938 271.984375 91.707031 271.984375 C 91.703125 271.984375 91.703125 271.984375 91.695312 271.984375 C 91.691406 271.984375 91.691406 271.984375 91.683594 271.984375 C 91.679688 271.984375 91.675781 271.984375 91.671875 271.984375 C 91.667969 271.984375 91.667969 271.984375 91.660156 271.988281 C 91.65625 271.988281 91.652344 271.988281 91.644531 271.988281 C 91.644531 271.988281 91.640625 271.988281 91.640625 271.988281 C 91.628906 271.988281 91.625 271.988281 91.617188 271.988281 C 91.613281 271.988281 91.609375 271.988281 91.605469 271.988281 C 91.601562 271.988281 91.597656 271.988281 91.59375 271.988281 C 91.589844 271.988281 91.585938 271.988281 91.582031 271.988281 C 91.578125 271.988281 91.574219 271.988281 91.566406 271.988281 C 91.566406 271.988281 91.5625 271.988281 91.558594 271.988281 C 91.554688 271.988281 91.546875 271.988281 91.542969 271.988281 C 91.539062 271.988281 91.539062 271.988281 91.535156 271.988281 C 91.527344 271.992188 91.519531 271.992188 91.515625 271.992188 C 91.511719 271.992188 91.507812 271.992188 91.503906 271.992188 C 91.5 271.992188 91.492188 271.992188 91.492188 271.992188 C 91.488281 271.992188 91.484375 271.992188 91.480469 271.992188 C 91.476562 271.992188 91.46875 271.992188 91.464844 271.992188 C 91.460938 271.992188 91.460938 271.992188 91.457031 271.992188 C 91.453125 271.992188 91.441406 271.992188 91.4375 271.992188 C 91.4375 271.992188 91.433594 271.992188 91.433594 271.992188 C 91.425781 271.992188 91.417969 271.992188 91.410156 271.992188 C 91.40625 271.992188 91.402344 271.992188 91.402344 271.992188 C 91.398438 271.992188 91.390625 271.992188 91.386719 271.992188 C 91.382812 271.992188 91.382812 271.992188 91.378906 271.992188 C 91.375 271.992188 91.367188 271.992188 91.363281 271.992188 C 91.359375 271.992188 91.355469 271.992188 91.351562 271.992188 C 91.347656 271.992188 91.339844 271.992188 91.332031 271.992188 " fill-opacity="1" fill-rule="nonzero"/></g><path fill="#89c42d" d="M 19.535156 147.269531 C 20.59375 145.132812 21.871094 143.164062 23.371094 141.398438 C 22.894531 142.441406 22.46875 143.511719 22.09375 144.621094 C 21.175781 145.445312 20.328125 146.328125 19.535156 147.269531 " fill-opacity="1" fill-rule="nonzero"/><path fill="#6fa72c" d="M 135.359375 142.046875 C 116.363281 137.644531 122.019531 117.101562 91.277344 117.101562 L 90.730469 117.101562 C 59.988281 117.101562 65.640625 137.644531 46.644531 142.046875 C 27.648438 146.449219 23.761719 170.335938 33.714844 191.609375 C 49.257812 223.941406 76.230469 257.6875 90.730469 257.6875 C 90.824219 257.6875 91.183594 257.6875 91.277344 257.6875 C 105.777344 257.6875 132.75 223.941406 148.289062 191.609375 C 158.242188 170.335938 154.355469 146.449219 135.359375 142.046875 " fill-opacity="1" fill-rule="nonzero"/><path fill="#f5fad8" d="M 134.941406 142.722656 C 116.226562 138.386719 121.796875 118.152344 91.515625 118.152344 L 90.976562 118.152344 C 60.6875 118.152344 66.261719 138.386719 47.546875 142.722656 C 28.835938 147.058594 25.003906 170.589844 34.808594 191.546875 C 50.117188 223.398438 76.6875 256.644531 90.976562 256.644531 C 91.066406 256.644531 91.417969 256.644531 91.515625 256.644531 C 105.796875 256.644531 132.371094 223.398438 147.679688 191.546875 C 157.484375 170.589844 153.65625 147.058594 134.941406 142.722656 " fill-opacity="1" fill-rule="nonzero"/><path fill="#93c347" d="M 33.347656 153.023438 C 35.890625 148.667969 39.644531 145.296875 44.679688 143.492188 C 44.722656 143.507812 44.753906 143.519531 44.796875 143.53125 C 39.949219 145.292969 36.277344 148.488281 33.757812 152.636719 C 33.617188 152.765625 33.484375 152.894531 33.347656 153.023438 " fill-opacity="1" fill-rule="nonzero"/><path fill="#f9fce3" d="M 33.757812 152.636719 C 36.277344 148.488281 39.949219 145.292969 44.796875 143.53125 C 46.359375 144.101562 47.890625 144.691406 49.394531 145.304688 C 47.734375 146.234375 45.820312 146.992188 43.554688 147.519531 C 39.621094 148.429688 36.382812 150.226562 33.757812 152.636719 " fill-opacity="1" fill-rule="nonzero"/><path fill="#fbc740" d="M 110.101562 210.070312 L 71.90625 210.070312 C 71.609375 210.070312 71.371094 209.832031 71.371094 209.535156 L 71.371094 175.921875 C 71.371094 175.625 71.609375 175.382812 71.90625 175.382812 L 110.101562 175.382812 C 110.394531 175.382812 110.636719 175.625 110.636719 175.921875 L 110.636719 209.535156 C 110.636719 209.832031 110.394531 210.070312 110.101562 210.070312 " fill-opacity="1" fill-rule="nonzero"/><path fill="#83c927" d="M 81.230469 171.890625 L 81.230469 166.453125 C 81.230469 161.730469 84.414062 157.390625 89.054688 156.488281 C 95.296875 155.277344 100.777344 160.042969 100.777344 166.066406 L 100.777344 171.890625 C 100.777344 172.402344 101.191406 172.820312 101.707031 172.820312 L 105.203125 172.820312 C 105.71875 172.820312 106.136719 172.402344 106.136719 171.890625 L 106.136719 166.738281 C 106.136719 158.84375 100.375 151.78125 92.511719 151.015625 C 83.492188 150.136719 75.867188 157.230469 75.867188 166.066406 L 75.867188 171.890625 C 75.867188 172.402344 76.285156 172.820312 76.800781 172.820312 L 80.296875 172.820312 C 80.8125 172.820312 81.230469 172.402344 81.230469 171.890625 " fill-opacity="1" fill-rule="nonzero"/><path fill="#f5fad8" d="M 95.234375 194.4375 C 95.234375 192.234375 93.449219 190.449219 91.242188 190.449219 C 89.039062 190.449219 87.253906 192.234375 87.253906 194.4375 C 87.253906 195.757812 87.933594 196.871094 88.921875 197.597656 L 88.921875 202.09375 C 88.921875 203.03125 89.683594 203.792969 90.621094 203.792969 L 91.867188 203.792969 C 92.804688 203.792969 93.570312 203.03125 93.570312 202.09375 L 93.570312 197.59375 C 94.554688 196.871094 95.234375 195.757812 95.234375 194.4375 " fill-opacity="1" fill-rule="nonzero"/><path fill="#fbfdf0" d="M 37.3125 132.890625 C 37.316406 132.890625 37.316406 132.890625 37.316406 132.890625 C 37.3125 132.890625 37.316406 132.890625 37.3125 132.890625 M 37.359375 132.878906 C 37.367188 132.878906 37.367188 132.878906 37.375 132.875 C 37.367188 132.878906 37.363281 132.878906 37.359375 132.878906 M 37.402344 132.871094 C 37.410156 132.867188 37.417969 132.867188 37.421875 132.863281 C 37.417969 132.867188 37.410156 132.867188 37.402344 132.871094 M 37.457031 132.859375 C 37.464844 132.855469 37.472656 132.851562 37.480469 132.851562 C 37.476562 132.851562 37.472656 132.851562 37.46875 132.855469 C 37.464844 132.855469 37.460938 132.855469 37.457031 132.859375 M 37.503906 132.847656 C 37.511719 132.84375 37.519531 132.84375 37.53125 132.839844 C 37.519531 132.84375 37.511719 132.84375 37.503906 132.847656 M 37.558594 132.832031 C 37.566406 132.832031 37.570312 132.828125 37.578125 132.828125 C 37.578125 132.828125 37.574219 132.828125 37.574219 132.828125 C 37.570312 132.828125 37.566406 132.832031 37.566406 132.832031 C 37.566406 132.832031 37.5625 132.832031 37.558594 132.832031 " fill-opacity="1" fill-rule="nonzero"/><path fill="#a1d841" d="M 119.445312 250.929688 C 119.375 246.652344 119.082031 242.253906 118.542969 237.777344 C 129.316406 225.1875 140.3125 208.214844 148.289062 191.609375 C 158.242188 170.335938 154.355469 146.449219 135.359375 142.046875 C 116.363281 137.644531 122.019531 117.101562 91.277344 117.101562 L 90.730469 117.101562 C 59.988281 117.101562 65.640625 137.644531 46.644531 142.046875 C 45.511719 142.308594 44.433594 142.640625 43.410156 143.035156 C 39.496094 141.660156 35.417969 140.429688 31.140625 139.347656 C 32.019531 139.050781 32.929688 138.792969 33.867188 138.574219 C 56.730469 133.277344 49.925781 108.554688 86.921875 108.554688 L 87.582031 108.554688 C 124.578125 108.554688 117.773438 133.277344 140.632812 138.574219 C 163.496094 143.871094 168.175781 172.621094 156.195312 198.222656 C 152.585938 205.726562 148.464844 213.296875 144.039062 220.625 C 136.039062 232.421875 127.503906 243.023438 119.445312 250.929688 M 132.363281 237.761719 C 135.199219 233.996094 138.011719 230.03125 140.753906 225.929688 C 140.746094 225.941406 140.742188 225.953125 140.730469 225.960938 C 147.445312 215.9375 153.75 205.101562 159.035156 194.339844 C 151.589844 209.492188 142.140625 224.792969 132.363281 237.761719 M 159.042969 194.328125 C 159.050781 194.3125 159.058594 194.296875 159.066406 194.277344 C 159.058594 194.296875 159.046875 194.3125 159.042969 194.328125 M 159.078125 194.25 C 159.085938 194.242188 159.085938 194.234375 159.09375 194.226562 C 159.085938 194.234375 159.085938 194.242188 159.078125 194.25 M 159.113281 194.175781 C 159.117188 194.175781 159.121094 194.171875 159.121094 194.164062 C 159.121094 194.171875 159.117188 194.175781 159.113281 194.175781 M 37.15625 132.929688 C 37.160156 132.929688 37.164062 132.929688 37.164062 132.925781 C 37.164062 132.929688 37.160156 132.929688 37.15625 132.929688 M 37.195312 132.921875 C 37.203125 132.917969 37.207031 132.917969 37.214844 132.914062 C 37.207031 132.917969 37.203125 132.917969 37.195312 132.921875 M 37.226562 132.910156 C 37.257812 132.90625 37.285156 132.898438 37.3125 132.890625 C 37.316406 132.890625 37.3125 132.890625 37.316406 132.890625 C 37.328125 132.886719 37.34375 132.886719 37.359375 132.878906 C 37.363281 132.878906 37.367188 132.878906 37.375 132.875 C 37.382812 132.875 37.394531 132.871094 37.402344 132.871094 C 37.410156 132.867188 37.417969 132.867188 37.421875 132.863281 C 37.433594 132.863281 37.445312 132.859375 37.457031 132.859375 C 37.460938 132.855469 37.464844 132.855469 37.46875 132.855469 C 37.390625 132.875 37.308594 132.890625 37.226562 132.910156 M 37.46875 132.855469 C 37.472656 132.851562 37.476562 132.851562 37.480469 132.851562 C 37.488281 132.847656 37.492188 132.847656 37.503906 132.847656 C 37.511719 132.84375 37.519531 132.84375 37.53125 132.839844 C 37.542969 132.835938 37.550781 132.835938 37.558594 132.832031 C 37.5625 132.832031 37.566406 132.832031 37.566406 132.832031 C 37.535156 132.835938 37.503906 132.847656 37.46875 132.855469 M 37.574219 132.828125 C 37.574219 132.828125 37.578125 132.828125 37.578125 132.828125 C 37.59375 132.824219 37.605469 132.824219 37.621094 132.820312 C 37.605469 132.824219 37.589844 132.824219 37.574219 132.828125 " fill-opacity="1" fill-rule="nonzero"/><g clip-path="url(#1502e1e2d8)"><path fill="#fafdf0" d="M 37.566406 132.832031 C 37.566406 132.832031 37.570312 132.828125 37.574219 132.828125 C 37.570312 132.828125 37.566406 132.832031 37.566406 132.832031 M 38.347656 132.640625 C 60.339844 126.992188 54.074219 102.800781 90.671875 102.800781 C 54.074219 102.800781 60.339844 126.992188 38.347656 132.640625 " fill-opacity="1" fill-rule="nonzero"/></g><g clip-path="url(#17bdf54419)"><path fill="#aedd5b" d="M 140.730469 225.960938 C 140.742188 225.953125 140.746094 225.941406 140.753906 225.929688 C 142.882812 222.746094 144.96875 219.484375 146.996094 216.167969 C 146.019531 217.671875 145.035156 219.15625 144.039062 220.625 C 148.464844 213.296875 152.585938 205.726562 156.195312 198.222656 C 168.175781 172.621094 163.496094 143.871094 140.632812 138.574219 C 117.773438 133.277344 124.578125 108.554688 87.582031 108.554688 L 86.921875 108.554688 C 49.925781 108.554688 56.730469 133.277344 33.867188 138.574219 C 32.929688 138.792969 32.019531 139.050781 31.140625 139.347656 C 29.617188 138.964844 28.070312 138.597656 26.503906 138.253906 C 29.445312 135.804688 32.988281 133.96875 37.15625 132.929688 C 37.160156 132.929688 37.164062 132.929688 37.164062 132.925781 C 37.171875 132.925781 37.183594 132.925781 37.195312 132.921875 C 37.203125 132.917969 37.207031 132.917969 37.214844 132.914062 C 37.21875 132.914062 37.226562 132.910156 37.226562 132.910156 C 37.308594 132.890625 37.390625 132.875 37.46875 132.855469 C 37.503906 132.847656 37.535156 132.835938 37.566406 132.832031 C 37.566406 132.832031 37.570312 132.828125 37.574219 132.828125 C 37.589844 132.824219 37.605469 132.824219 37.621094 132.820312 C 37.867188 132.761719 38.109375 132.703125 38.347656 132.640625 C 60.339844 126.992188 54.074219 102.800781 90.671875 102.800781 L 91.332031 102.800781 C 128.332031 102.800781 121.523438 127.519531 144.382812 132.820312 C 159.152344 136.242188 166.335938 149.449219 166.339844 165.273438 C 166.34375 173.945312 164.1875 183.402344 159.945312 192.464844 C 159.675781 193.03125 159.398438 193.597656 159.121094 194.164062 C 159.121094 194.171875 159.117188 194.175781 159.113281 194.175781 C 159.109375 194.191406 159.097656 194.210938 159.09375 194.226562 C 159.085938 194.234375 159.085938 194.242188 159.078125 194.25 C 159.074219 194.261719 159.070312 194.269531 159.066406 194.277344 C 159.058594 194.296875 159.050781 194.3125 159.042969 194.328125 C 159.039062 194.332031 159.039062 194.335938 159.035156 194.339844 C 153.75 205.101562 147.445312 215.9375 140.730469 225.960938 " fill-opacity="1" fill-rule="nonzero"/></g><path fill="#99d13d" d="M 119.460938 253.265625 C 119.460938 252.492188 119.460938 251.714844 119.445312 250.929688 C 127.503906 243.023438 136.039062 232.421875 144.039062 220.625 C 142.957031 222.410156 141.863281 224.179688 140.753906 225.929688 C 138.011719 230.03125 135.199219 233.996094 132.363281 237.761719 C 128.078125 243.445312 123.730469 248.6875 119.460938 253.265625 " fill-opacity="1" fill-rule="nonzero"/><path fill="#a4d856" d="M 140.753906 225.929688 C 141.863281 224.179688 142.957031 222.410156 144.039062 220.625 C 145.035156 219.15625 146.019531 217.671875 146.996094 216.167969 C 144.96875 219.484375 142.882812 222.746094 140.753906 225.929688 " fill-opacity="1" fill-rule="nonzero"/><path fill="#91c43e" d="M 118.542969 237.777344 C 118.511719 237.5 118.476562 237.226562 118.441406 236.949219 C 129.03125 224.554688 139.832031 207.867188 147.679688 191.546875 C 157.484375 170.589844 153.65625 147.058594 134.941406 142.722656 C 116.226562 138.386719 121.796875 118.152344 91.515625 118.152344 L 90.734375 118.152344 C 60.449219 118.152344 66.019531 138.382812 47.308594 142.722656 C 46.394531 142.929688 45.519531 143.191406 44.679688 143.492188 C 44.261719 143.339844 43.832031 143.183594 43.410156 143.035156 C 44.433594 142.640625 45.511719 142.308594 46.644531 142.046875 C 65.640625 137.644531 59.988281 117.101562 90.730469 117.101562 L 91.277344 117.101562 C 122.019531 117.101562 116.363281 137.644531 135.359375 142.046875 C 154.355469 146.449219 158.242188 170.335938 148.289062 191.609375 C 140.3125 208.214844 129.316406 225.1875 118.542969 237.777344 M 58.929688 136.074219 C 60.019531 134.695312 61.128906 133.304688 62.371094 131.980469 C 61.257812 133.386719 60.15625 134.773438 58.929688 136.074219 " fill-opacity="1" fill-rule="nonzero"/><path fill="#f4f9d5" d="M 118.441406 236.949219 C 117.167969 226.972656 114.664062 216.648438 110.636719 206.554688 L 110.636719 175.921875 C 110.636719 175.625 110.394531 175.382812 110.101562 175.382812 L 91.863281 175.382812 C 88.683594 171.695312 85.191406 168.152344 81.359375 164.804688 C 82 160.753906 84.964844 157.285156 89.054688 156.488281 C 89.714844 156.359375 90.367188 156.300781 91.003906 156.300781 C 96.390625 156.300781 100.777344 160.679688 100.777344 166.066406 L 100.777344 171.890625 C 100.777344 172.402344 101.191406 172.820312 101.707031 172.820312 L 105.203125 172.820312 C 105.71875 172.820312 106.136719 172.402344 106.136719 171.890625 L 106.136719 166.738281 C 106.136719 158.84375 100.375 151.78125 92.511719 151.015625 C 92.007812 150.964844 91.5 150.941406 91 150.941406 C 84.4375 150.941406 78.835938 155.140625 76.746094 160.992188 C 68.929688 154.90625 59.855469 149.574219 49.394531 145.304688 C 53.589844 142.964844 56.195312 139.539062 58.929688 136.074219 C 60.15625 134.773438 61.257812 133.386719 62.371094 131.980469 C 66.960938 127.0625 73.324219 122.945312 86.980469 122.945312 L 87.523438 122.945312 C 117.808594 122.945312 112.234375 143.179688 130.949219 147.519531 C 149.660156 151.855469 153.492188 175.386719 143.6875 196.34375 C 137.441406 209.332031 129.324219 222.515625 120.933594 233.617188 C 130.625 221.648438 140.265625 206.46875 147.4375 191.546875 C 157.242188 170.589844 153.414062 147.058594 134.699219 142.722656 C 115.984375 138.382812 121.558594 118.152344 91.273438 118.152344 L 90.976562 118.152344 L 91.515625 118.152344 C 121.796875 118.152344 116.226562 138.386719 134.941406 142.722656 C 153.65625 147.058594 157.484375 170.589844 147.679688 191.546875 C 139.832031 207.867188 129.03125 224.554688 118.441406 236.949219 " fill-opacity="1" fill-rule="nonzero"/><path fill="#acd669" d="M 44.796875 143.53125 C 44.753906 143.519531 44.722656 143.507812 44.679688 143.492188 C 45.519531 143.191406 46.394531 142.929688 47.308594 142.722656 C 66.019531 138.382812 60.449219 118.152344 90.734375 118.152344 L 90.976562 118.152344 C 73.003906 118.152344 67.65625 125.277344 62.371094 131.980469 C 61.128906 133.304688 60.019531 134.695312 58.929688 136.074219 C 56.167969 139.011719 52.824219 141.5 47.546875 142.722656 C 46.589844 142.941406 45.675781 143.214844 44.796875 143.53125 " fill-opacity="1" fill-rule="nonzero"/><path fill="#f7fbdd" d="M 120.933594 233.617188 C 129.324219 222.515625 137.441406 209.332031 143.6875 196.34375 C 153.492188 175.386719 149.660156 151.855469 130.949219 147.519531 C 112.234375 143.179688 117.808594 122.945312 87.523438 122.945312 L 86.980469 122.945312 C 73.324219 122.945312 66.960938 127.0625 62.371094 131.980469 C 67.65625 125.277344 73.003906 118.152344 90.976562 118.152344 L 91.273438 118.152344 C 121.558594 118.152344 115.984375 138.382812 134.699219 142.722656 C 153.414062 147.058594 157.242188 170.589844 147.4375 191.546875 C 140.265625 206.46875 130.625 221.648438 120.933594 233.617188 M 49.394531 145.304688 C 47.890625 144.691406 46.359375 144.101562 44.796875 143.53125 C 45.675781 143.214844 46.589844 142.941406 47.546875 142.722656 C 52.824219 141.5 56.167969 139.011719 58.929688 136.074219 C 56.195312 139.539062 53.589844 142.964844 49.394531 145.304688 " fill-opacity="1" fill-rule="nonzero"/><path fill="#f8d963" d="M 110.636719 206.554688 C 106.277344 195.640625 100.140625 185 91.863281 175.382812 L 110.101562 175.382812 C 110.394531 175.382812 110.636719 175.625 110.636719 175.921875 L 110.636719 206.554688 " fill-opacity="1" fill-rule="nonzero"/><path fill="#a1d841" d="M 105.203125 172.820312 L 101.707031 172.820312 C 101.191406 172.820312 100.777344 172.402344 100.777344 171.890625 L 100.777344 166.066406 C 100.777344 160.679688 96.390625 156.300781 91.003906 156.300781 C 90.367188 156.300781 89.714844 156.359375 89.054688 156.488281 C 84.964844 157.285156 82 160.753906 81.359375 164.804688 C 79.875 163.503906 78.335938 162.234375 76.746094 160.992188 C 78.835938 155.140625 84.4375 150.941406 91 150.941406 C 91.5 150.941406 92.007812 150.964844 92.511719 151.015625 C 100.375 151.78125 106.136719 158.84375 106.136719 166.738281 L 106.136719 171.890625 C 106.136719 172.402344 105.71875 172.820312 105.203125 172.820312 " fill-opacity="1" fill-rule="nonzero"/><path fill="#f5fad8" d="M 177.574219 202.507812 C 175.996094 202.507812 174.773438 203.097656 173.910156 204.285156 C 173.046875 205.464844 172.613281 207.121094 172.613281 209.234375 C 172.613281 213.644531 174.265625 215.84375 177.574219 215.84375 C 178.960938 215.84375 180.640625 215.5 182.617188 214.800781 L 182.617188 218.316406 C 180.996094 218.988281 179.179688 219.328125 177.183594 219.328125 C 174.304688 219.328125 172.109375 218.457031 170.585938 216.714844 C 169.0625 214.972656 168.300781 212.46875 168.300781 209.207031 C 168.300781 207.15625 168.671875 205.355469 169.421875 203.8125 C 170.171875 202.265625 171.242188 201.082031 172.644531 200.257812 C 174.046875 199.433594 175.691406 199.019531 177.574219 199.019531 C 179.496094 199.019531 181.421875 199.488281 183.363281 200.414062 L 182.007812 203.820312 C 181.273438 203.464844 180.527344 203.160156 179.777344 202.898438 C 179.03125 202.636719 178.296875 202.507812 177.574219 202.507812 " fill-opacity="1" fill-rule="nonzero"/><path fill="#f5fad8" d="M 198.207031 219.0625 L 186.820312 219.0625 L 186.820312 199.304688 L 198.207031 199.304688 L 198.207031 202.734375 L 191.011719 202.734375 L 191.011719 207.070312 L 197.707031 207.070312 L 197.707031 210.507812 L 191.011719 210.507812 L 191.011719 215.601562 L 198.207031 215.601562 L 198.207031 219.0625 " fill-opacity="1" fill-rule="nonzero"/><path fill="#f5fad8" d="M 206.519531 208.078125 L 207.875 208.078125 C 209.199219 208.078125 210.175781 207.851562 210.804688 207.410156 C 211.4375 206.96875 211.753906 206.277344 211.753906 205.332031 C 211.753906 204.394531 211.433594 203.726562 210.785156 203.332031 C 210.140625 202.9375 209.144531 202.734375 207.792969 202.734375 L 206.519531 202.734375 Z M 206.519531 211.480469 L 206.519531 219.0625 L 202.328125 219.0625 L 202.328125 199.304688 L 208.09375 199.304688 C 210.777344 199.304688 212.765625 199.792969 214.054688 200.769531 C 215.339844 201.746094 215.984375 203.230469 215.984375 205.222656 C 215.984375 206.386719 215.667969 207.417969 215.023438 208.324219 C 214.382812 209.226562 213.480469 209.9375 212.308594 210.453125 C 215.28125 214.894531 217.21875 217.765625 218.125 219.0625 L 213.472656 219.0625 L 208.75 211.480469 L 206.519531 211.480469 " fill-opacity="1" fill-rule="nonzero"/><path fill="#f5fad8" d="M 228.234375 219.0625 L 224.042969 219.0625 L 224.042969 202.789062 L 218.675781 202.789062 L 218.675781 199.304688 L 233.601562 199.304688 L 233.601562 202.789062 L 228.234375 202.789062 L 228.234375 219.0625 " fill-opacity="1" fill-rule="nonzero"/><path fill="#f5fad8" d="M 236.644531 219.0625 L 236.644531 199.304688 L 240.835938 199.304688 L 240.835938 219.0625 L 236.644531 219.0625 " fill-opacity="1" fill-rule="nonzero"/><path fill="#f5fad8" d="M 249.9375 219.0625 L 245.808594 219.0625 L 245.808594 199.304688 L 257.140625 199.304688 L 257.140625 202.734375 L 249.9375 202.734375 L 249.9375 207.828125 L 256.640625 207.828125 L 256.640625 211.246094 L 249.9375 211.246094 L 249.9375 219.0625 " fill-opacity="1" fill-rule="nonzero"/><path fill="#f5fad8" d="M 261.003906 219.0625 L 261.003906 199.304688 L 265.195312 199.304688 L 265.195312 219.0625 L 261.003906 219.0625 " fill-opacity="1" fill-rule="nonzero"/><path fill="#f5fad8" d="M 278.570312 202.507812 C 276.988281 202.507812 275.769531 203.097656 274.902344 204.285156 C 274.039062 205.464844 273.609375 207.121094 273.609375 209.234375 C 273.609375 213.644531 275.261719 215.84375 278.570312 215.84375 C 279.957031 215.84375 281.636719 215.5 283.613281 214.800781 L 283.613281 218.316406 C 281.988281 218.988281 280.175781 219.328125 278.175781 219.328125 C 275.300781 219.328125 273.101562 218.457031 271.582031 216.714844 C 270.058594 214.972656 269.292969 212.46875 269.292969 209.207031 C 269.292969 207.15625 269.667969 205.355469 270.414062 203.8125 C 271.164062 202.265625 272.238281 201.082031 273.640625 200.257812 C 275.039062 199.433594 276.683594 199.019531 278.570312 199.019531 C 280.488281 199.019531 282.417969 199.488281 284.355469 200.414062 L 283.003906 203.820312 C 282.265625 203.464844 281.519531 203.160156 280.773438 202.898438 C 280.023438 202.636719 279.289062 202.507812 278.570312 202.507812 " fill-opacity="1" fill-rule="nonzero"/><path fill="#f5fad8" d="M 297.484375 210.84375 C 296.164062 206.582031 295.40625 204.175781 295.246094 203.613281 C 295.082031 203.054688 294.960938 202.613281 294.886719 202.289062 C 294.589844 203.441406 293.742188 206.296875 292.332031 210.84375 Z M 299.917969 219.0625 L 298.484375 214.359375 L 291.277344 214.359375 L 289.84375 219.0625 L 285.328125 219.0625 L 292.304688 199.226562 L 297.429688 199.226562 L 304.433594 219.0625 L 299.917969 219.0625 " fill-opacity="1" fill-rule="nonzero"/><path fill="#f5fad8" d="M 314.542969 219.0625 L 310.355469 219.0625 L 310.355469 202.789062 L 304.988281 202.789062 L 304.988281 199.304688 L 319.914062 199.304688 L 319.914062 202.789062 L 314.542969 202.789062 L 314.542969 219.0625 " fill-opacity="1" fill-rule="nonzero"/><path fill="#f5fad8" d="M 334.335938 219.0625 L 322.953125 219.0625 L 322.953125 199.304688 L 334.335938 199.304688 L 334.335938 202.734375 L 327.144531 202.734375 L 327.144531 207.070312 L 333.835938 207.070312 L 333.835938 210.507812 L 327.144531 210.507812 L 327.144531 215.601562 L 334.335938 215.601562 L 334.335938 219.0625 " fill-opacity="1" fill-rule="nonzero"/><path fill="#f5fad8" d="M 235.546875 178.363281 C 235.546875 181.722656 234.339844 184.371094 231.921875 186.304688 C 229.5 188.242188 226.132812 189.210938 221.820312 189.210938 C 217.847656 189.210938 214.332031 188.464844 211.273438 186.96875 L 211.273438 179.636719 C 213.789062 180.757812 215.914062 181.542969 217.652344 182.003906 C 219.394531 182.460938 220.988281 182.691406 222.433594 182.691406 C 224.164062 182.691406 225.492188 182.359375 226.414062 181.695312 C 227.34375 181.035156 227.804688 180.050781 227.804688 178.742188 C 227.804688 178.011719 227.601562 177.371094 227.195312 176.796875 C 226.789062 176.230469 226.191406 175.683594 225.398438 175.15625 C 224.613281 174.628906 223 173.789062 220.570312 172.632812 C 218.296875 171.5625 216.589844 170.535156 215.453125 169.550781 C 214.3125 168.570312 213.40625 167.421875 212.726562 166.117188 C 212.046875 164.808594 211.707031 163.28125 211.707031 161.53125 C 211.707031 158.238281 212.820312 155.652344 215.054688 153.765625 C 217.289062 151.882812 220.378906 150.941406 224.316406 150.941406 C 226.25 150.941406 228.097656 151.171875 229.859375 151.628906 C 231.613281 152.089844 233.453125 152.734375 235.371094 153.5625 L 232.824219 159.699219 C 230.835938 158.882812 229.195312 158.316406 227.894531 157.996094 C 226.597656 157.671875 225.316406 157.511719 224.0625 157.511719 C 222.566406 157.511719 221.421875 157.859375 220.621094 158.554688 C 219.824219 159.25 219.425781 160.160156 219.425781 161.28125 C 219.425781 161.972656 219.585938 162.582031 219.910156 163.097656 C 220.230469 163.617188 220.746094 164.117188 221.449219 164.601562 C 222.15625 165.082031 223.824219 165.957031 226.457031 167.210938 C 229.9375 168.871094 232.324219 170.542969 233.613281 172.214844 C 234.90625 173.886719 235.546875 175.9375 235.546875 178.363281 " fill-opacity="1" fill-rule="nonzero"/><path fill="#f5fad8" d="M 264.285156 178.363281 C 264.285156 181.722656 263.078125 184.371094 260.652344 186.304688 C 258.234375 188.242188 254.867188 189.210938 250.554688 189.210938 C 246.582031 189.210938 243.0625 188.464844 240.007812 186.96875 L 240.007812 179.636719 C 242.519531 180.757812 244.644531 181.542969 246.386719 182.003906 C 248.128906 182.460938 249.722656 182.691406 251.164062 182.691406 C 252.898438 182.691406 254.222656 182.359375 255.152344 181.695312 C 256.074219 181.035156 256.539062 180.050781 256.539062 178.742188 C 256.539062 178.011719 256.335938 177.371094 255.929688 176.796875 C 255.519531 176.230469 254.925781 175.683594 254.132812 175.15625 C 253.34375 174.628906 251.734375 173.789062 249.308594 172.632812 C 247.03125 171.5625 245.324219 170.535156 244.183594 169.550781 C 243.046875 168.570312 242.136719 167.421875 241.460938 166.117188 C 240.777344 164.808594 240.441406 163.28125 240.441406 161.53125 C 240.441406 158.238281 241.558594 155.652344 243.789062 153.765625 C 246.019531 151.882812 249.109375 150.941406 253.046875 150.941406 C 254.988281 150.941406 256.832031 151.171875 258.59375 151.628906 C 260.347656 152.089844 262.1875 152.734375 264.105469 153.5625 L 261.558594 159.699219 C 259.570312 158.882812 257.929688 158.316406 256.625 157.996094 C 255.332031 157.671875 254.054688 157.511719 252.796875 157.511719 C 251.300781 157.511719 250.152344 157.859375 249.355469 158.554688 C 248.558594 159.25 248.160156 160.160156 248.160156 161.28125 C 248.160156 161.972656 248.320312 162.582031 248.644531 163.097656 C 248.964844 163.617188 249.480469 164.117188 250.1875 164.601562 C 250.886719 165.082031 252.558594 165.957031 255.191406 167.210938 C 258.671875 168.871094 261.058594 170.542969 262.347656 172.214844 C 263.640625 173.886719 264.285156 175.9375 264.285156 178.363281 " fill-opacity="1" fill-rule="nonzero"/><path fill="#f5fad8" d="M 271.035156 188.699219 L 271.035156 151.476562 L 278.929688 151.476562 L 278.929688 182.183594 L 294.035156 182.183594 L 294.035156 188.699219 L 271.035156 188.699219 " fill-opacity="1" fill-rule="nonzero"/><path fill="#f5fad8" d="M 200.890625 173.5 L 181.382812 173.5 C 180.441406 173.5 179.671875 172.738281 179.671875 171.796875 C 179.671875 170.851562 180.441406 170.089844 181.382812 170.089844 L 200.890625 170.089844 C 201.835938 170.089844 202.601562 170.851562 202.601562 171.796875 C 202.601562 172.738281 201.835938 173.5 200.890625 173.5 " fill-opacity="1" fill-rule="nonzero"/><path fill="#f5fad8" d="M 323.929688 173.5 L 304.417969 173.5 C 303.472656 173.5 302.710938 172.738281 302.710938 171.796875 C 302.710938 170.851562 303.472656 170.089844 304.417969 170.089844 L 323.929688 170.089844 C 324.871094 170.089844 325.636719 170.851562 325.636719 171.796875 C 325.636719 172.738281 324.871094 173.5 323.929688 173.5 " fill-opacity="1" fill-rule="nonzero"/></svg>