<svg xmlns="http://www.w3.org/2000/svg" xmlns:xlink="http://www.w3.org/1999/xlink" width="500" zoomAndPan="magnify" viewBox="0 0 375 374.999991" height="500" preserveAspectRatio="xMidYMid meet" version="1.0"><defs><clipPath id="62d26c8dcc"><path d="M 76.5 37.5 L 298.5 37.5 L 298.5 304 L 76.5 304 Z M 76.5 37.5 " clip-rule="nonzero"/></clipPath></defs><path fill="#2f9c00" d="M 125.644531 302.632812 L 136.339844 334.175781 C 137.328125 337.082031 141.355469 337.289062 142.632812 334.5 L 185.679688 248.289062 L 135.015625 219.4375 L 91.273438 307.15625 C 90.0625 309.8125 92.546875 312.660156 95.339844 311.8125 L 125.644531 302.632812 " fill-opacity="1" fill-rule="nonzero"/><path fill="#2f9c00" d="M 250.007812 301.214844 L 279.601562 309.660156 C 282.40625 310.464844 284.84375 307.585938 283.59375 304.949219 L 238.871094 218.523438 L 188.585938 248.203125 L 233.136719 334.265625 C 234.453125 337.039062 238.480469 336.777344 239.429688 333.859375 L 250.007812 301.214844 " fill-opacity="1" fill-rule="nonzero"/><path fill="#2f9c00" d="M 294.578125 165.386719 L 283.878906 156.40625 C 282.175781 154.976562 281.207031 152.863281 281.210938 150.640625 C 281.210938 150.554688 281.210938 150.472656 281.210938 150.390625 C 281.210938 148.152344 282.203125 146.03125 283.914062 144.59375 L 294.617188 135.609375 C 297.300781 133.359375 296.542969 129.042969 293.246094 127.84375 L 280.148438 123.074219 C 278.058594 122.3125 276.425781 120.65625 275.671875 118.558594 C 275.636719 118.464844 275.605469 118.378906 275.574219 118.285156 C 274.8125 116.199219 274.996094 113.890625 276.105469 111.964844 L 283.101562 99.851562 C 284.855469 96.816406 282.660156 93.019531 279.15625 93.019531 L 265.1875 93.019531 C 262.964844 93.019531 260.863281 92.019531 259.4375 90.3125 C 259.382812 90.246094 259.328125 90.183594 259.273438 90.117188 C 257.84375 88.414062 257.230469 86.179688 257.617188 83.992188 L 260.046875 70.1875 C 260.660156 66.738281 257.300781 63.917969 254.003906 65.117188 L 240.898438 69.890625 C 238.800781 70.648438 236.484375 70.425781 234.554688 69.304688 C 234.476562 69.257812 234.394531 69.210938 234.316406 69.164062 C 232.398438 68.054688 231.058594 66.164062 230.671875 63.980469 L 228.242188 50.199219 C 227.632812 46.746094 223.515625 45.242188 220.828125 47.496094 L 210.140625 56.464844 C 208.4375 57.894531 206.191406 58.476562 204 58.085938 C 203.910156 58.070312 203.820312 58.054688 203.726562 58.039062 C 201.539062 57.65625 199.625 56.335938 198.511719 54.414062 L 191.515625 42.289062 C 189.761719 39.25 185.375 39.25 183.625 42.289062 L 176.71875 54.25 C 175.566406 56.242188 173.597656 57.621094 171.332031 58.011719 L 171.28125 58.023438 C 168.996094 58.421875 166.65625 57.789062 164.878906 56.300781 L 154.296875 47.417969 C 151.609375 45.167969 147.492188 46.664062 146.882812 50.117188 L 144.488281 63.703125 C 144.089844 65.972656 142.707031 67.945312 140.710938 69.097656 L 140.605469 69.160156 C 138.640625 70.292969 136.269531 70.5 134.140625 69.722656 L 121.082031 64.972656 C 117.785156 63.773438 114.429688 66.589844 115.039062 70.042969 L 117.4375 83.65625 C 117.835938 85.921875 117.210938 88.246094 115.730469 90.003906 L 115.6875 90.058594 C 114.210938 91.8125 112.039062 92.824219 109.746094 92.824219 L 95.871094 92.824219 C 92.363281 92.824219 90.171875 96.621094 91.925781 99.65625 L 98.8125 111.585938 C 99.964844 113.585938 100.175781 115.996094 99.382812 118.167969 L 99.359375 118.238281 C 98.570312 120.398438 96.863281 122.101562 94.695312 122.890625 L 81.703125 127.621094 C 78.410156 128.816406 77.648438 133.136719 80.335938 135.386719 L 91.0625 144.390625 C 92.746094 145.804688 93.707031 147.898438 93.699219 150.101562 C 93.699219 150.195312 93.699219 150.292969 93.699219 150.390625 L 93.699219 150.46875 C 93.699219 152.652344 92.734375 154.722656 91.0625 156.128906 L 80.296875 165.164062 C 77.609375 167.417969 78.371094 171.730469 81.667969 172.929688 L 94.660156 177.660156 C 96.800781 178.441406 98.488281 180.128906 99.261719 182.269531 L 99.300781 182.386719 C 100.089844 184.550781 99.878906 186.953125 98.726562 188.949219 L 91.8125 200.917969 C 90.058594 203.957031 92.25 207.753906 95.753906 207.753906 L 109.582031 207.753906 C 111.878906 207.753906 114.058594 208.773438 115.53125 210.535156 L 115.578125 210.589844 C 117.050781 212.347656 117.671875 214.660156 117.273438 216.921875 L 114.839844 230.714844 C 114.242188 234.109375 117.546875 236.882812 120.785156 235.703125 L 133.871094 230.941406 C 136.042969 230.148438 138.449219 230.363281 140.445312 231.523438 L 140.550781 231.585938 C 142.507812 232.71875 143.863281 234.660156 144.257812 236.890625 L 146.667969 250.574219 C 147.28125 254.03125 151.398438 255.53125 154.085938 253.277344 L 164.65625 244.410156 C 166.414062 242.929688 168.746094 242.304688 171.011719 242.707031 L 171.085938 242.714844 C 173.351562 243.117188 175.324219 244.496094 176.476562 246.492188 L 183.394531 258.484375 C 185.148438 261.519531 189.535156 261.519531 191.285156 258.484375 L 198.1875 246.535156 C 199.34375 244.535156 201.320312 243.15625 203.597656 242.757812 L 203.71875 242.738281 C 205.945312 242.351562 208.234375 242.964844 209.964844 244.417969 L 220.617188 253.355469 C 223.300781 255.609375 227.421875 254.109375 228.03125 250.65625 L 230.425781 237.070312 C 230.824219 234.800781 232.207031 232.828125 234.199219 231.675781 L 234.308594 231.613281 C 236.273438 230.480469 238.640625 230.273438 240.773438 231.050781 L 253.828125 235.800781 C 257.125 237.003906 260.484375 234.183594 259.878906 230.730469 L 257.464844 217.066406 C 257.070312 214.835938 257.6875 212.542969 259.148438 210.808594 L 259.257812 210.675781 C 260.714844 208.945312 262.859375 207.949219 265.117188 207.949219 L 279.039062 207.949219 C 282.546875 207.949219 284.742188 204.152344 282.988281 201.117188 L 276.101562 189.1875 C 274.945312 187.1875 274.738281 184.777344 275.527344 182.605469 L 275.550781 182.539062 C 276.34375 180.375 278.050781 178.671875 280.214844 177.882812 L 293.207031 173.15625 C 296.5 171.957031 297.265625 167.640625 294.578125 165.386719 " fill-opacity="1" fill-rule="nonzero"/><g clip-path="url(#62d26c8dcc)"><path stroke-linecap="butt" transform="matrix(0.0877124, 0, 0, -0.0877124, -31.824764, 407.526453)" fill="none" stroke-linejoin="miter" d="M 3721.287482 2760.611483 L 3599.306733 2862.99693 C 3579.889571 2879.296658 3568.844947 2903.389971 3568.889482 2928.730258 C 3568.889482 2929.710023 3568.889482 2930.645254 3568.889482 2931.580484 C 3568.889482 2957.09891 3580.201314 2981.281293 3599.707546 2997.67009 L 3721.73283 3100.100073 C 3752.32822 3125.752103 3743.688474 3174.96303 3706.101124 3188.635206 L 3556.776023 3243.012166 C 3532.949918 3251.696447 3514.334382 3270.579192 3505.739171 3294.494366 C 3505.338358 3295.5632 3504.982079 3296.542965 3504.625801 3297.6118 C 3495.94152 3321.39337 3498.034655 3347.713422 3510.682531 3369.669066 L 3590.444313 3507.771403 C 3610.440427 3542.374924 3585.411883 3585.662725 3545.46419 3585.662725 L 3386.207834 3585.662725 C 3360.867547 3585.662725 3336.907838 3597.063627 3320.652646 3616.525324 C 3320.029159 3617.282415 3319.405672 3617.994972 3318.782185 3618.752063 C 3302.482457 3638.169225 3295.490498 3663.643116 3299.89944 3688.58259 L 3327.60007 3845.968485 C 3334.59203 3885.292691 3296.292124 3917.446799 3258.704773 3903.774623 L 3109.290603 3849.353128 C 3085.375429 3840.713382 3058.966307 3843.251864 3036.966129 3856.033344 C 3036.075433 3856.567762 3035.140203 3857.102179 3034.249507 3857.636596 C 3012.382933 3870.284472 2997.107505 3891.839303 2992.698562 3916.734243 L 2964.997932 4073.852929 C 2958.050507 4113.22167 2911.110854 4130.367559 2880.470929 4104.626459 L 2758.623785 4002.41915 C 2739.206623 3986.119422 2713.599127 3979.483741 2688.615118 3983.937218 C 2687.590818 3984.115357 2686.566519 3984.293496 2685.497684 3984.471635 C 2660.55821 3988.836043 2638.73617 4003.888797 2626.043759 4025.799907 L 2546.281977 4164.035848 C 2526.285863 4198.683903 2476.273311 4198.683903 2456.321732 4164.035848 L 2377.584249 4027.670367 C 2364.446491 4004.957632 2342.000964 3989.236856 2316.170794 3984.783379 L 2315.591842 3984.649775 C 2289.538999 3980.107228 2262.862669 3987.321861 2242.599346 4004.28961 L 2121.954641 4105.561689 C 2091.314715 4131.213719 2044.375062 4114.1569 2037.427638 4074.743624 L 2010.12782 3919.896212 C 2005.585273 3894.021507 1989.819963 3871.531446 1967.062693 3858.393687 L 1965.860254 3857.681131 C 1943.459262 3844.766046 1916.426654 3842.405703 1892.155201 3851.268123 L 1743.275448 3905.42241 C 1705.688098 3919.094586 1667.432726 3886.985013 1674.380151 3847.616272 L 1701.724503 3692.412581 C 1706.26705 3666.582411 1699.141486 3640.08422 1682.262807 3620.043571 L 1681.772924 3619.420084 C 1664.938779 3599.42397 1640.177444 3587.889464 1614.035531 3587.889464 L 1455.84801 3587.889464 C 1415.855782 3587.889464 1390.871773 3544.601662 1410.867887 3509.998142 L 1489.382696 3373.988939 C 1502.520454 3351.187134 1504.925332 3323.709178 1495.884773 3298.947843 L 1495.617564 3298.146217 C 1486.62154 3273.518487 1467.159843 3254.101325 1442.443043 3245.1053 L 1294.320381 3191.173688 C 1256.777566 3177.546047 1248.093285 3128.290585 1278.688675 3102.638555 L 1401.025702 2999.985898 C 1420.22019 2983.86431 1431.175745 2959.99367 1431.086675 2934.876057 C 1431.086675 2933.807223 1431.086675 2932.693853 1431.086675 2931.580484 L 1431.086675 2930.689788 C 1431.086675 2905.794849 1420.086586 2882.191418 1401.025702 2866.158899 L 1278.287862 2763.149965 C 1247.647937 2737.4534 1256.332218 2688.287008 1293.919568 2674.614832 L 1442.04223 2620.683219 C 1466.447287 2611.776264 1485.68631 2592.537242 1494.504195 2568.132185 L 1494.949543 2566.796142 C 1503.945567 2542.123876 1501.540689 2514.73499 1488.402931 2491.97772 L 1409.576379 2355.523169 C 1389.580265 2320.875114 1414.564274 2277.587312 1454.511967 2277.587312 L 1612.165071 2277.587312 C 1638.351518 2277.587312 1663.201923 2265.963736 1679.991533 2245.878553 L 1680.52595 2245.255066 C 1697.315561 2225.214417 1704.39659 2198.84983 1699.854043 2173.064195 L 1672.108878 2015.811905 C 1665.295057 1977.111185 1702.971477 1945.491495 1739.890805 1958.940997 L 1889.082302 2013.228888 C 1913.843637 2022.269447 1941.277058 2019.820035 1964.034328 2006.593206 L 1965.236767 2005.88065 C 1987.548689 1992.965565 2003.002256 1970.831782 2007.500269 1945.402425 L 2034.978225 1789.397109 C 2041.970185 1749.983833 2088.909837 1732.882479 2119.549763 1758.579044 L 2240.060864 1859.672984 C 2260.101513 1876.551663 2286.688773 1883.677227 2312.518943 1879.090145 L 2313.365104 1879.001076 C 2339.195273 1874.413994 2361.685335 1858.693218 2374.823093 1835.935948 L 2453.69418 1699.214189 C 2473.690294 1664.610669 2523.702846 1664.610669 2543.654425 1699.214189 L 2622.347373 1835.446066 C 2635.529666 1858.247871 2658.064262 1873.968646 2684.028036 1878.511193 L 2685.408614 1878.733867 C 2710.793436 1883.14281 2736.890814 1876.15085 2756.61972 1859.583914 L 2878.066051 1757.688349 C 2908.661442 1731.991783 2955.645629 1749.093137 2962.593054 1788.461878 L 2989.892871 1943.353826 C 2994.435418 1969.22853 3010.200729 1991.718592 3032.913464 2004.85635 L 3034.160438 2005.568907 C 3056.56143 2018.483991 3083.549503 2020.844334 3107.86549 2011.981914 L 3256.700709 1957.827628 C 3294.288059 1944.110917 3332.587965 1976.265025 3325.685075 2015.633766 L 3298.162584 2171.416409 C 3293.664572 2196.845765 3300.701066 2222.987678 3317.357072 2242.761118 L 3318.604046 2244.275301 C 3335.215517 2264.004206 3359.665108 2275.360574 3385.406208 2275.360574 L 3544.128147 2275.360574 C 3584.120375 2275.360574 3609.148918 2318.648375 3589.152804 2353.251895 L 3510.637996 2489.261098 C 3497.455702 2512.062903 3495.095359 2539.540859 3504.091384 2564.302194 L 3504.358593 2565.059285 C 3513.399152 2589.731551 3532.860849 2609.148713 3557.533114 2618.144737 L 3705.655776 2672.031815 C 3743.198591 2685.703991 3751.927407 2734.914917 3721.287482 2760.611483 Z M 3721.287482 2760.611483 " stroke="#ffffff" stroke-width="34.703999" stroke-opacity="1" stroke-miterlimit="10"/></g><path fill="#ffffff" d="M 270.570312 150.390625 C 270.570312 196.289062 233.359375 233.5 187.457031 233.5 C 141.554688 233.5 104.34375 196.289062 104.34375 150.390625 C 104.34375 104.488281 141.554688 67.273438 187.457031 67.273438 C 233.359375 67.273438 270.570312 104.488281 270.570312 150.390625 " fill-opacity="1" fill-rule="nonzero"/><path fill="#2f9c00" d="M 265.398438 150.390625 C 265.398438 193.433594 230.503906 228.328125 187.457031 228.328125 C 144.410156 228.328125 109.511719 193.433594 109.511719 150.390625 C 109.511719 107.339844 144.410156 72.445312 187.457031 72.445312 C 230.503906 72.445312 265.398438 107.339844 265.398438 150.390625 " fill-opacity="1" fill-rule="nonzero"/><path fill="#ffffff" d="M 173.832031 185.457031 L 144.976562 157.617188 C 141.058594 153.839844 140.949219 147.597656 144.726562 143.675781 C 148.511719 139.757812 154.75 139.648438 158.667969 143.425781 L 179.472656 163.496094 L 215.328125 115.449219 C 218.585938 111.082031 224.765625 110.1875 229.128906 113.441406 C 233.492188 116.703125 234.390625 122.878906 231.132812 127.246094 L 188.578125 184.257812 C 185.03125 189.019531 178.109375 189.582031 173.832031 185.457031 " fill-opacity="1" fill-rule="nonzero"/></svg>