<svg xmlns="http://www.w3.org/2000/svg" xmlns:xlink="http://www.w3.org/1999/xlink" width="500" zoomAndPan="magnify" viewBox="0 0 375 374.999991" height="500" preserveAspectRatio="xMidYMid meet" version="1.0"><defs><clipPath id="c3c028dbd4"><path d="M 37.5 112 L 337.5 112 L 337.5 318.75 L 37.5 318.75 Z M 37.5 112 " clip-rule="nonzero"/></clipPath><clipPath id="32cfac10a2"><path d="M 37.5 150 L 337.5 150 L 337.5 207 L 37.5 207 Z M 37.5 150 " clip-rule="nonzero"/></clipPath><clipPath id="7032955d26"><path d="M 168 112 L 337.5 112 L 337.5 263 L 168 263 Z M 168 112 " clip-rule="nonzero"/></clipPath><clipPath id="d6c0a4170c"><path d="M 187 56.25 L 337.5 56.25 L 337.5 244 L 187 244 Z M 187 56.25 " clip-rule="nonzero"/></clipPath></defs><g clip-path="url(#c3c028dbd4)"><path fill="#2196f3" d="M 318.75 112.5 L 56.25 112.5 C 45.917969 112.5 37.5 120.917969 37.5 131.25 L 37.5 300 C 37.5 310.351562 45.917969 318.75 56.25 318.75 L 318.75 318.75 C 329.101562 318.75 337.5 310.351562 337.5 300 L 337.5 131.25 C 337.5 120.917969 329.101562 112.5 318.75 112.5 Z M 318.75 112.5 " fill-opacity="1" fill-rule="nonzero"/></g><g clip-path="url(#32cfac10a2)"><path fill="#455a64" d="M 37.5 150 L 337.5 150 L 337.5 206.25 L 37.5 206.25 Z M 37.5 150 " fill-opacity="1" fill-rule="nonzero"/></g><path fill="#fafafa" d="M 121.875 262.5 L 84.375 262.5 C 79.199219 262.5 75 258.300781 75 253.125 C 75 247.949219 79.199219 243.75 84.375 243.75 L 121.875 243.75 C 127.050781 243.75 131.25 247.949219 131.25 253.125 C 131.25 258.300781 127.050781 262.5 121.875 262.5 Z M 121.875 262.5 " fill-opacity="1" fill-rule="nonzero"/><g clip-path="url(#7032955d26)"><path fill="#fafafa" d="M 337.5 205.238281 L 337.5 131.25 C 337.5 120.917969 329.101562 112.5 318.75 112.5 L 168.75 112.5 L 168.75 131.25 C 168.75 189.976562 191.101562 225.730469 248.550781 258.804688 C 252.789062 261.226562 257.625 262.5 262.5 262.5 C 267.375 262.5 272.210938 261.226562 276.507812 258.769531 C 304.929688 242.4375 324.730469 225.394531 337.5 205.238281 Z M 337.5 205.238281 " fill-opacity="1" fill-rule="nonzero"/></g><g clip-path="url(#d6c0a4170c)"><path fill="#009688" d="M 331.820312 85.144531 L 266.195312 57.019531 C 263.8125 56.007812 261.167969 56.007812 258.789062 57.019531 L 193.164062 85.144531 C 189.730469 86.605469 187.5 90 187.5 93.75 L 187.5 131.25 C 187.5 182.832031 206.570312 212.980469 257.832031 242.511719 C 259.273438 243.335938 260.886719 243.75 262.5 243.75 C 264.113281 243.75 265.726562 243.335938 267.167969 242.511719 C 318.429688 213.054688 337.5 182.90625 337.5 131.25 L 337.5 93.75 C 337.5 90 335.269531 86.605469 331.820312 85.144531 Z M 331.820312 85.144531 " fill-opacity="1" fill-rule="nonzero"/></g><path fill="#fafafa" d="M 253.125 178.125 C 252.992188 178.125 252.84375 178.125 252.730469 178.125 C 249.75 177.992188 246.992188 176.457031 245.324219 173.960938 L 226.574219 145.835938 C 223.707031 141.523438 224.867188 135.710938 229.179688 132.84375 C 233.457031 129.992188 239.289062 131.117188 242.175781 135.449219 L 253.820312 152.90625 L 283.292969 116.042969 C 286.539062 112.011719 292.445312 111.375 296.476562 114.582031 C 300.523438 117.824219 301.164062 123.710938 297.9375 127.761719 L 260.4375 174.636719 C 258.65625 176.832031 255.957031 178.125 253.125 178.125 Z M 253.125 178.125 " fill-opacity="1" fill-rule="nonzero"/></svg>