<svg xmlns="http://www.w3.org/2000/svg" xmlns:xlink="http://www.w3.org/1999/xlink" width="500" zoomAndPan="magnify" viewBox="0 0 375 374.999991" height="500" preserveAspectRatio="xMidYMid meet" version="1.0"><defs><clipPath id="7ed367a06f"><path d="M 61 195 L 204 195 L 204 337.5 L 61 337.5 Z M 61 195 " clip-rule="nonzero"/></clipPath><clipPath id="0f0d758c7b"><path d="M 52.875 37.5 L 322.125 37.5 L 322.125 307 L 52.875 307 Z M 52.875 37.5 " clip-rule="nonzero"/></clipPath></defs><g clip-path="url(#7ed367a06f)"><path fill="#21b521" d="M 132.90625 195.359375 C 93.65625 195.359375 61.835938 227.179688 61.835938 266.429688 C 61.835938 305.679688 93.65625 337.5 132.90625 337.5 C 172.15625 337.5 203.976562 305.679688 203.976562 266.429688 C 203.976562 227.179688 172.15625 195.359375 132.90625 195.359375 Z M 170.648438 300.296875 C 164.832031 309.394531 155.625 318.226562 143.1875 314.027344 C 121.0625 306.59375 108.570312 284.84375 107.277344 282.476562 C 105.769531 280.265625 91.878906 259.324219 95.109375 236.226562 C 96.941406 223.195312 108.894531 218.941406 119.660156 217.8125 C 121.382812 217.652344 122.945312 218.890625 123.160156 220.613281 L 125.90625 244.300781 C 126.066406 245.648438 125.367188 246.941406 124.128906 247.53125 L 114.0625 252.484375 C 114.0625 252.484375 109.914062 257.65625 120.144531 274.507812 C 130.644531 291.195312 137.105469 289.796875 137.105469 289.796875 L 146.042969 283.011719 C 147.121094 282.207031 148.574219 282.152344 149.703125 282.851562 L 169.679688 295.882812 C 171.1875 296.851562 171.617188 298.789062 170.648438 300.296875 Z M 170.648438 300.296875 " fill-opacity="1" fill-rule="nonzero"/></g><g clip-path="url(#0f0d758c7b)"><path fill="#21b521" d="M 282.691406 76.910156 C 257.277344 51.5 223.464844 37.5 187.5 37.5 C 151.535156 37.5 117.722656 51.5 92.308594 76.910156 C 66.898438 102.324219 52.898438 136.136719 52.898438 172.101562 C 52.898438 192.613281 57.476562 212.429688 66.089844 230.410156 C 69.859375 223.519531 74.648438 217.21875 80.25 211.78125 C 75.671875 199.398438 73.140625 186.046875 73.140625 172.046875 C 73.140625 109 124.453125 57.691406 187.5 57.691406 C 250.546875 57.691406 301.859375 109 301.859375 172.046875 C 301.859375 228.632812 260.5625 275.746094 206.503906 284.789062 C 204.566406 292.488281 201.5 299.703125 197.40625 306.273438 C 229.601562 303.957031 259.59375 290.28125 282.691406 267.183594 C 308.101562 241.878906 322.101562 208.066406 322.101562 172.101562 C 322.101562 136.136719 308.101562 102.324219 282.691406 76.910156 Z M 282.691406 76.910156 " fill-opacity="1" fill-rule="nonzero"/></g><path fill="#21b521" d="M 112.660156 170.378906 L 105.664062 177.214844 C 105.015625 177.863281 104.585938 178.777344 104.585938 179.691406 L 104.585938 183.355469 C 104.585938 185.292969 106.148438 186.800781 108.03125 186.800781 L 150.027344 186.800781 C 151.964844 186.800781 153.472656 185.238281 153.472656 183.355469 L 153.472656 178.507812 C 153.472656 176.570312 151.910156 175.0625 150.027344 175.0625 L 124.558594 175.0625 L 126.820312 172.964844 C 141.414062 158.910156 151.75 147.875 151.75 133.714844 C 151.75 122.515625 144.480469 111.261719 128.222656 111.261719 C 121.492188 111.261719 114.976562 113.253906 109.59375 116.914062 C 108.085938 117.9375 107.65625 119.929688 108.515625 121.492188 L 110.617188 125.207031 C 111.585938 126.929688 113.792969 127.46875 115.40625 126.445312 C 118.152344 124.722656 121.921875 123.054688 126.230469 123.054688 C 136.191406 123.054688 138.289062 129.511719 138.289062 134.898438 C 138.234375 144.480469 130.699219 153.203125 112.660156 170.378906 Z M 112.660156 170.378906 " fill-opacity="1" fill-rule="nonzero"/><path fill="#21b521" d="M 199.183594 112.390625 L 191.214844 112.390625 C 190.085938 112.390625 189.007812 112.929688 188.363281 113.847656 L 157.617188 157.832031 C 157.1875 158.425781 156.972656 159.125 156.972656 159.824219 L 156.972656 164.078125 C 156.972656 166.015625 158.535156 167.523438 160.417969 167.523438 L 189.761719 167.523438 L 189.761719 183.300781 C 189.761719 185.238281 191.324219 186.746094 193.207031 186.746094 L 199.128906 186.746094 C 201.066406 186.746094 202.574219 185.183594 202.574219 183.300781 L 202.574219 167.523438 L 208.980469 167.523438 C 210.921875 167.523438 212.429688 165.964844 212.429688 164.078125 L 212.429688 159.71875 C 212.429688 157.78125 210.867188 156.273438 208.980469 156.273438 L 202.574219 156.273438 L 202.574219 115.890625 C 202.628906 113.953125 201.121094 112.390625 199.183594 112.390625 Z M 189.761719 134.628906 L 189.761719 156.273438 L 172.15625 156.273438 L 187.445312 135.058594 L 187.5 135.003906 C 188.308594 133.605469 189.0625 132.367188 189.816406 131.074219 C 189.816406 132.207031 189.761719 133.445312 189.761719 134.628906 Z M 189.761719 134.628906 " fill-opacity="1" fill-rule="nonzero"/><path fill="#21b521" d="M 238.488281 145.179688 L 234.339844 145.179688 C 232.886719 145.179688 231.648438 146.042969 231.109375 147.390625 L 202.035156 223.089844 C 201.175781 225.351562 202.84375 227.773438 205.265625 227.773438 L 209.304688 227.773438 C 210.757812 227.773438 211.996094 226.910156 212.535156 225.566406 L 241.769531 149.917969 C 242.578125 147.65625 240.910156 145.179688 238.488281 145.179688 Z M 238.488281 145.179688 " fill-opacity="1" fill-rule="nonzero"/><path fill="#21b521" d="M 244.679688 232.996094 L 249.632812 232.996094 C 250.277344 232.996094 250.925781 232.617188 251.195312 232.027344 L 270.199219 192.238281 C 270.308594 192.023438 270.359375 191.753906 270.359375 191.484375 L 270.359375 188.199219 C 270.359375 187.230469 269.554688 186.476562 268.636719 186.476562 L 241.878906 186.476562 C 240.910156 186.476562 240.15625 187.285156 240.15625 188.199219 L 240.15625 192.078125 C 240.15625 193.046875 240.964844 193.800781 241.878906 193.800781 L 261.046875 193.800781 L 243.0625 230.464844 C 242.578125 231.648438 243.386719 232.996094 244.679688 232.996094 Z M 244.679688 232.996094 " fill-opacity="1" fill-rule="nonzero"/></svg>